<svg xmlns="http://www.w3.org/2000/svg" width="192.78" height="50" viewBox="0 0 192.78 50">
  <g id="Group_37" data-name="Group 37" transform="translate(-316 -517)">
    <path id="Path_18" data-name="Path 18" d="M2.88-28.64H9.16L20.68-9.44H21l-.32-5.52V-28.64h5.36V0H20.36L8.2-20.28H7.88l.32,5.52V0H2.88Zm37.56,8.4a10.9,10.9,0,0,1,4.18.78A9.9,9.9,0,0,1,47.9-17.3,9.847,9.847,0,0,1,50.06-14a11.056,11.056,0,0,1,.78,4.2,11.056,11.056,0,0,1-.78,4.2A9.847,9.847,0,0,1,47.9-2.3,9.9,9.9,0,0,1,44.62-.14a10.9,10.9,0,0,1-4.18.78,10.9,10.9,0,0,1-4.18-.78A9.9,9.9,0,0,1,32.98-2.3a9.847,9.847,0,0,1-2.16-3.3,11.056,11.056,0,0,1-.78-4.2,11.056,11.056,0,0,1,.78-4.2,9.847,9.847,0,0,1,2.16-3.3,9.9,9.9,0,0,1,3.28-2.16A10.9,10.9,0,0,1,40.44-20.24Zm0,16.04a5.131,5.131,0,0,0,1.94-.38,4.947,4.947,0,0,0,1.66-1.1,5.214,5.214,0,0,0,1.14-1.76A6.258,6.258,0,0,0,45.6-9.8a6.258,6.258,0,0,0-.42-2.36,5.214,5.214,0,0,0-1.14-1.76,4.947,4.947,0,0,0-1.66-1.1,5.131,5.131,0,0,0-1.94-.38,5.083,5.083,0,0,0-1.96.38,5,5,0,0,0-1.64,1.1,5.214,5.214,0,0,0-1.14,1.76,6.258,6.258,0,0,0-.42,2.36,6.258,6.258,0,0,0,.42,2.36,5.214,5.214,0,0,0,1.14,1.76,5,5,0,0,0,1.64,1.1A5.083,5.083,0,0,0,40.44-4.2ZM55.76-15.12H52.32V-19.6h3.44v-6H61v6h4.8v4.48H61v7.6a5.364,5.364,0,0,0,.14,1.26,2.029,2.029,0,0,0,.54.98,2.012,2.012,0,0,0,1.6.64,3.366,3.366,0,0,0,1.08-.14,3.377,3.377,0,0,0,.76-.38L66.6-.56A8.639,8.639,0,0,1,64.62.1a11.536,11.536,0,0,1-2.34.22,7.275,7.275,0,0,1-2.66-.46A5.667,5.667,0,0,1,57.64-1.4a6.755,6.755,0,0,1-1.88-5.12Zm17-7.32a3.328,3.328,0,0,1-1.3-.26,3.333,3.333,0,0,1-1.08-.72,3.394,3.394,0,0,1-.72-1.06,3.285,3.285,0,0,1-.26-1.32,3.285,3.285,0,0,1,.26-1.32,3.394,3.394,0,0,1,.72-1.06,3.333,3.333,0,0,1,1.08-.72,3.328,3.328,0,0,1,1.3-.26,3.307,3.307,0,0,1,2.4.98,3.208,3.208,0,0,1,1,2.38,3.208,3.208,0,0,1-1,2.38A3.307,3.307,0,0,1,72.76-22.44ZM70.16,0V-19.6H75.4V0ZM89.28-20.24a10.9,10.9,0,0,1,4.18.78,9.9,9.9,0,0,1,3.28,2.16A9.847,9.847,0,0,1,98.9-14a11.056,11.056,0,0,1,.78,4.2,11.056,11.056,0,0,1-.78,4.2,9.847,9.847,0,0,1-2.16,3.3A9.9,9.9,0,0,1,93.46-.14a10.9,10.9,0,0,1-4.18.78A10.9,10.9,0,0,1,85.1-.14,9.9,9.9,0,0,1,81.82-2.3a9.847,9.847,0,0,1-2.16-3.3,11.056,11.056,0,0,1-.78-4.2,11.056,11.056,0,0,1,.78-4.2,9.847,9.847,0,0,1,2.16-3.3,9.9,9.9,0,0,1,3.28-2.16A10.9,10.9,0,0,1,89.28-20.24Zm0,16.04a5.131,5.131,0,0,0,1.94-.38,4.947,4.947,0,0,0,1.66-1.1,5.214,5.214,0,0,0,1.14-1.76,6.258,6.258,0,0,0,.42-2.36,6.258,6.258,0,0,0-.42-2.36,5.214,5.214,0,0,0-1.14-1.76,4.947,4.947,0,0,0-1.66-1.1,5.131,5.131,0,0,0-1.94-.38,5.083,5.083,0,0,0-1.96.38,5,5,0,0,0-1.64,1.1,5.214,5.214,0,0,0-1.14,1.76,6.258,6.258,0,0,0-.42,2.36,6.258,6.258,0,0,0,.42,2.36,5.214,5.214,0,0,0,1.14,1.76,5,5,0,0,0,1.64,1.1A5.083,5.083,0,0,0,89.28-4.2Zm18.28-12.84h.32a6.641,6.641,0,0,1,2.48-2.34,7.251,7.251,0,0,1,3.56-.86,8.166,8.166,0,0,1,3.24.6,5.934,5.934,0,0,1,2.3,1.7,7.507,7.507,0,0,1,1.36,2.64,11.923,11.923,0,0,1,.46,3.42V0h-5.24V-11.24a4.511,4.511,0,0,0-.94-3.14,3.542,3.542,0,0,0-2.74-1.02,3.818,3.818,0,0,0-1.9.46,4.436,4.436,0,0,0-1.4,1.24,5.611,5.611,0,0,0-.88,1.84,8.265,8.265,0,0,0-.3,2.26V0h-5.24V-19.6h4.92Z" transform="translate(387 556)" stroke="#000" stroke-width="1"/>
    <path id="notion" d="M8.268,8.762c1.561,1.26,2.138,1.171,5.072.972L40.86,8.079c.585,0,.1-.581-.1-.679L36.177,4.1a5.494,5.494,0,0,0-4.292-1.26L5.24,4.786c-.972.094-1.171.581-.78.972l3.8,3.012Zm1.65,6.415V44.132c0,1.561.78,2.138,2.528,2.041l30.247-1.748c1.752-.1,1.951-1.171,1.951-2.431V13.23c0-1.26-.488-1.951-1.561-1.846l-31.6,1.846c-1.171.1-1.561.683-1.561,1.951Zm29.86,1.561c.191.874,0,1.748-.878,1.846l-1.444.285V40.246a7.589,7.589,0,0,1-3.4,1.065c-1.561,0-1.951-.484-3.121-1.951L21.394,24.4v14.48l3.016.679s0,1.748-2.431,1.748l-6.711.39a1.26,1.26,0,0,1,.683-1.561l1.748-.488V20.518l-2.431-.2a1.818,1.818,0,0,1,1.654-2.236l7.195-.484,9.922,15.17V19.351l-2.528-.289a1.643,1.643,0,0,1,1.561-1.951l6.715-.39ZM3.012,2.152,30.715.112c3.422-.293,4.3-.094,6.434,1.448L46,7.8c1.459,1.069,1.951,1.358,1.951,2.524V44.436c0,2.134-.78,3.4-3.512,3.594l-32.19,1.951c-2.045.1-3.016-.2-4.085-1.561L1.654,39.953A6.546,6.546,0,0,1,0,35.872V5.555A3.047,3.047,0,0,1,3.012,2.152Z" transform="translate(316 517.002)" fill-rule="evenodd"/>
  </g>
</svg>
